<svg width="158" height="25" viewBox="0 0 158 25" fill="none" xmlns="http://www.w3.org/2000/svg">
<path d="M42.0123 10.0103H46.8563C48.0564 10.0103 48.5478 10.4265 48.5478 11.4461C48.5478 12.321 48.2449 12.8628 46.7363 12.8628H38.7173V14.5436H47.0214C49.532 14.5436 50.6041 13.648 50.6041 11.5502C50.6041 9.38919 49.5054 8.33429 47.2453 8.33429H42.2781C40.9894 8.33429 40.4659 7.9237 40.4659 6.91763C40.4659 5.92677 40.991 5.52257 42.2781 5.52257H50.1949V3.8418H42.0123C39.6016 3.8418 38.4297 4.82785 38.4297 6.8552C38.4297 8.29588 39.0515 10.0103 42.0123 10.0103Z" fill="#005981"/>
<path d="M63.2736 12.8033H57.1675C54.8864 12.8033 53.87 11.6828 53.87 9.18242C53.87 6.69245 54.8872 5.58072 57.1675 5.58072H63.2736V3.83911H56.9436C53.4922 3.83911 51.8145 5.58555 51.8145 9.17843C51.8145 12.7849 53.4922 14.5409 56.9436 14.5409H63.2736V12.8033Z" fill="#005981"/>
<path d="M78.4578 14.5412V8.79693C78.4578 5.60103 76.6359 3.84179 73.3287 3.84179H67.2016V0H65.126V14.542H67.2016V5.57781H73.1048C75.236 5.57781 76.362 6.69034 76.362 8.79373V14.538L78.4578 14.5412Z" fill="#005981"/>
<path d="M85.4706 14.542H92.7197V12.8612H85.6575C83.6124 12.8612 82.7208 12.2089 82.4526 10.4737H90.3387C92.1913 10.4737 93.2086 9.33878 93.2086 7.27781C93.2086 5.05997 91.8643 3.83618 89.4229 3.83618H85.4762C81.722 3.83618 80.3262 5.28325 80.3262 9.17548C80.3262 12.9829 81.8187 14.538 85.4762 14.538L85.4706 14.542ZM85.6591 5.49377H89.2836C90.5892 5.49377 91.1973 6.05402 91.1973 7.25458C91.1973 8.37511 90.764 8.87295 89.7918 8.87295H82.3986C82.604 6.16527 83.2782 5.49455 85.6607 5.49455" fill="#005981"/>
<path d="M96.9081 8.53509C96.9081 6.50694 97.8932 5.52088 99.9205 5.52088H103.096V3.84009H99.6966C96.5014 3.84009 94.8115 5.46326 94.8115 8.5327V14.5395H96.9057L96.9081 8.53509Z" fill="#005981"/>
<path d="M106.596 0.0102539H104.502V10.6777C104.502 14.004 106.002 14.5411 109.59 14.5411H111.075V12.8819H109.729C107.152 12.8819 106.595 12.4817 106.595 10.6168V5.51924H111.297V3.83844H106.596V0.0102539Z" fill="#005981"/>
<path d="M118.066 14.542H125.315V12.8612H118.246C116.201 12.8612 115.308 12.2089 115.042 10.4737H122.927C124.779 10.4737 125.798 9.33878 125.798 7.27781C125.798 5.05997 124.452 3.83618 122.012 3.83618H118.065C114.312 3.83618 112.916 5.28325 112.916 9.17548C112.916 12.9829 114.408 14.538 118.065 14.538L118.066 14.542ZM118.249 5.49377H121.873C123.179 5.49377 123.787 6.05402 123.787 7.25458C123.787 8.37511 123.354 8.87295 122.382 8.87295H114.988C115.194 6.16527 115.867 5.49455 118.251 5.49455" fill="#005981"/>
<path d="M132.066 14.5409H138.397V12.8033H132.29C130.01 12.8033 128.993 11.6828 128.993 9.18242C128.993 6.69245 130.01 5.58072 132.29 5.58072H138.396V3.83911H132.066C128.615 3.83911 126.937 5.58555 126.937 9.17843C126.937 12.7849 128.615 14.5409 132.066 14.5409" fill="#005981"/>
<path d="M148.451 3.84228H142.324V0.000488281H140.248V14.5425H142.324V5.5783H148.226C150.357 5.5783 151.484 6.69083 151.484 8.79422V14.5385H153.578V8.79422C153.578 5.59832 151.756 3.83908 148.449 3.83908" fill="#005981"/>
<path d="M41.5312 20.6697H39.8027C39.3065 20.6697 39.2051 20.4848 39.2051 20.2079C39.2051 19.9309 39.3065 19.7541 39.8027 19.7541H42.5887V19.1082H39.7109C38.8627 19.1082 38.4326 19.4715 38.4326 20.1879C38.4326 20.7033 38.6549 21.3172 39.7109 21.3172H41.3959C41.8574 21.3172 41.9524 21.5037 41.9524 21.7846C41.9524 22.0655 41.8542 22.2464 41.3532 22.2464H38.5341V22.8923H41.4506C42.3463 22.8923 42.7281 22.5722 42.7281 21.8198C42.7281 21.0459 42.335 20.6697 41.5288 20.6697" fill="#FFA600"/>
<path d="M49.0749 19.1073H44.123V22.8915H44.9076V19.77H47.1322V22.8915H47.9022V19.77H49.0041C49.1527 19.7507 49.3039 19.7654 49.446 19.8131C49.588 19.8608 49.7172 19.9402 49.8235 20.0452C49.9299 20.1502 50.0107 20.2781 50.0596 20.4189C50.1086 20.5598 50.1244 20.7099 50.1059 20.8577V22.8875H50.8904V20.8577C50.9152 20.6169 50.8848 20.3736 50.8015 20.1461C50.7183 19.9186 50.5844 19.7127 50.4098 19.5439C50.2352 19.3751 50.0244 19.2477 49.7932 19.1713C49.5621 19.0948 49.3165 19.0713 49.0749 19.1025" fill="#FFA600"/>
<path d="M54.8664 19.1082H52.413V19.7541H54.5338C55.4914 19.7541 55.8466 19.9365 55.9578 20.5224H53.3868C52.6417 20.5224 52.2793 20.8994 52.2793 21.6725C52.2793 22.681 52.8818 22.8931 53.3868 22.8931H56.7745V21.0042C56.7745 19.6572 56.222 19.109 54.8672 19.109L54.8664 19.1082ZM55.9948 22.2472H53.5358C53.3215 22.2472 53.0364 22.1864 53.0364 21.6661C53.0364 21.2836 53.1766 21.1347 53.5358 21.1347H55.9973L55.9948 22.2472Z" fill="#FFA600"/>
<path d="M58.1654 20.7692V22.8902H58.9572V20.7692C58.9334 20.6309 58.9431 20.4889 58.9857 20.3551C59.0283 20.2214 59.1025 20.0996 59.202 20.0001C59.3016 19.9005 59.4236 19.8261 59.558 19.7829C59.6923 19.7397 59.8351 19.7291 59.9745 19.7519H61.1102V19.106H59.8956C59.6656 19.0731 59.431 19.093 59.21 19.164C58.9889 19.2351 58.7871 19.3555 58.6201 19.5161C58.4531 19.6766 58.3253 19.873 58.2465 20.0902C58.1677 20.3075 58.1399 20.5397 58.1654 20.7692Z" fill="#FFA600"/>
<path d="M63.2927 17.8413H62.501V21.5174C62.501 22.694 63.0567 22.8925 64.302 22.8925H64.8497V22.2522H64.3503C63.4699 22.2522 63.2911 22.1249 63.2911 21.495V19.7534H64.927V19.1075H63.2911L63.2927 17.8413Z" fill="#FFA600"/>
<path d="M69.8435 17.7708H69.0518V18.7832H69.8435V17.7708Z" fill="#FFA600"/>
<path d="M69.8435 19.1074H69.0518V22.8916H69.8435V19.1074Z" fill="#FFA600"/>
<path d="M74.1215 19.1073H71.2363V22.8915H72.0208V19.77H74.0425C74.1912 19.7507 74.3424 19.7654 74.4844 19.8131C74.6265 19.8608 74.7556 19.9402 74.862 20.0452C74.9684 20.1502 75.0491 20.2781 75.0981 20.4189C75.147 20.5598 75.1629 20.7099 75.1444 20.8577V22.8875H75.9361V20.8577C75.9609 20.6169 75.9305 20.3736 75.8472 20.1461C75.764 19.9186 75.6301 19.7127 75.4555 19.5439C75.2809 19.3751 75.0701 19.2477 74.8389 19.1713C74.6078 19.0948 74.3622 19.0713 74.1206 19.1025" fill="#FFA600"/>
<path d="M81.3711 19.1082H79.3631C79.1026 19.0914 78.8414 19.1278 78.5957 19.2153C78.35 19.3027 78.1249 19.4393 77.9345 19.6167C77.744 19.794 77.5922 20.0083 77.4884 20.2463C77.3846 20.4843 77.3311 20.7409 77.3311 21.0003C77.3311 21.2596 77.3846 21.5163 77.4884 21.7542C77.5922 21.9922 77.744 22.2065 77.9345 22.3839C78.1249 22.5612 78.35 22.6978 78.5957 22.7853C78.8414 22.8728 79.1026 22.9092 79.3631 22.8924H80.3127C80.5652 22.9299 80.823 22.9079 81.0654 22.8283C81.3077 22.7487 81.5279 22.6136 81.7081 22.434C81.8884 22.2543 82.0237 22.0351 82.103 21.794C82.1824 21.5529 82.2037 21.2967 82.1652 21.0459V17.7708H81.3735L81.3711 19.1082ZM81.3711 21.0387C81.3711 21.8863 81.0577 22.232 80.291 22.232H79.4275C78.5552 22.232 78.113 21.8158 78.113 20.9963C78.113 20.1767 78.5552 19.7749 79.4275 19.7749H81.3719L81.3711 21.0387Z" fill="#FFA600"/>
<path d="M87.3975 22.2313H85.4459C85.2964 22.2519 85.1441 22.2378 85.001 22.19C84.8579 22.1423 84.7279 22.0622 84.6212 21.9561C84.5144 21.85 84.434 21.7208 84.386 21.5785C84.3381 21.4363 84.324 21.2849 84.3448 21.1364V19.1074H83.5523V21.1364C83.5276 21.3772 83.5579 21.6205 83.6412 21.848C83.7244 22.0755 83.8583 22.2814 84.0329 22.4502C84.2076 22.619 84.4183 22.7464 84.6495 22.8228C84.8806 22.8993 85.1262 22.9228 85.3678 22.8916H88.1869V19.1074H87.3975V22.2313Z" fill="#FFA600"/>
<path d="M92.678 20.6697H90.9503C90.4533 20.6697 90.3519 20.4848 90.3519 20.2079C90.3519 19.9309 90.4533 19.7541 90.9503 19.7541H93.7356V19.1082H90.8585C90.0104 19.1082 89.5811 19.4715 89.5811 20.1879C89.5811 20.7033 89.8026 21.3172 90.8585 21.3172H92.5435C93.005 21.3172 93.1001 21.5037 93.1001 21.7846C93.1001 22.0655 93.0018 22.2464 92.5016 22.2464H89.6825V22.8923H92.6023C93.4979 22.8923 93.8797 22.5722 93.8797 21.8198C93.8797 21.0459 93.4875 20.6697 92.6804 20.6697" fill="#FFA600"/>
<path d="M96.0545 17.8413H95.2627V21.5174C95.2627 22.694 95.8184 22.8925 97.0637 22.8925H97.6114V22.2522H97.1136C96.2325 22.2522 96.0545 22.1249 96.0545 21.495V19.7534H97.6903V19.1075H96.0545V17.8413Z" fill="#FFA600"/>
<path d="M99.0201 20.7692V22.8902H99.8119V20.7692C99.788 20.6309 99.7978 20.4889 99.8404 20.3551C99.883 20.2214 99.9571 20.0996 100.057 20.0001C100.156 19.9005 100.278 19.8261 100.413 19.7829C100.547 19.7397 100.69 19.7291 100.829 19.7519H101.965V19.106H100.751C100.521 19.0731 100.287 19.093 100.065 19.164C99.8443 19.2351 99.6426 19.3555 99.4756 19.5161C99.3086 19.6766 99.1808 19.873 99.1019 20.0902C99.0231 20.3075 98.9954 20.5397 99.0209 20.7692" fill="#FFA600"/>
<path d="M105.347 21.8158L103.553 19.1073H102.66L104.922 22.4961L103.812 24.2281H104.687L107.941 19.1057H107.067L105.347 21.8158Z" fill="#FFA600"/>
<path d="M114.616 20.6697H112.889C112.392 20.6697 112.291 20.4848 112.291 20.2079C112.291 19.9309 112.392 19.7541 112.889 19.7541H115.675V19.1082H112.796C111.948 19.1082 111.519 19.4715 111.519 20.1879C111.519 20.7033 111.74 21.3172 112.796 21.3172H114.481C114.943 21.3172 115.038 21.5037 115.038 21.7846C115.038 22.0655 114.939 22.2464 114.439 22.2464H111.62V22.8923H114.541C115.436 22.8923 115.818 22.5722 115.818 21.8198C115.818 21.0459 115.426 20.6697 114.618 20.6697" fill="#FFA600"/>
<path d="M119.743 19.1075H118.971C118.71 19.0907 118.449 19.1271 118.203 19.2146C117.957 19.302 117.732 19.4387 117.542 19.616C117.351 19.7934 117.2 20.0077 117.096 20.2456C116.992 20.4836 116.938 20.7402 116.938 20.9996C116.938 21.259 116.992 21.5156 117.096 21.7536C117.2 21.9915 117.351 22.2059 117.542 22.3832C117.732 22.5605 117.957 22.6972 118.203 22.7846C118.449 22.8721 118.71 22.9085 118.971 22.8917H119.743C120.003 22.9085 120.265 22.8721 120.51 22.7846C120.756 22.6972 120.981 22.5605 121.172 22.3832C121.362 22.2059 121.514 21.9915 121.618 21.7536C121.721 21.5156 121.775 21.259 121.775 20.9996C121.775 20.7402 121.721 20.4836 121.618 20.2456C121.514 20.0077 121.362 19.7934 121.172 19.616C120.981 19.4387 120.756 19.302 120.51 19.2146C120.265 19.1271 120.003 19.0907 119.743 19.1075ZM119.679 22.229H119.013C118.842 22.2547 118.667 22.2409 118.502 22.1886C118.337 22.1362 118.186 22.0469 118.062 21.9273C117.937 21.8078 117.842 21.6614 117.783 21.4994C117.725 21.3374 117.705 21.1642 117.724 20.9932C117.724 20.1776 118.159 19.7646 119.013 19.7646H119.679C120.551 19.7646 120.993 20.1784 120.993 20.9932C120.993 21.808 120.552 22.229 119.679 22.229Z" fill="#FFA600"/>
<path d="M123.84 17.7708H123.048V22.8924H123.84V17.7708Z" fill="#FFA600"/>
<path d="M129.075 22.2313H127.124C126.974 22.2519 126.822 22.2377 126.679 22.19C126.536 22.1423 126.405 22.0622 126.299 21.9561C126.192 21.85 126.111 21.7208 126.063 21.5786C126.015 21.4363 126.001 21.285 126.022 21.1364V19.1074H125.23V21.1364C125.205 21.3772 125.236 21.6205 125.319 21.848C125.402 22.0755 125.536 22.2814 125.711 22.4502C125.885 22.619 126.096 22.7464 126.327 22.8228C126.558 22.8993 126.804 22.9228 127.046 22.8916H129.865V19.1074H129.073L129.075 22.2313Z" fill="#FFA600"/>
<path d="M132.051 17.8413H131.259V21.5174C131.259 22.694 131.815 22.8925 133.061 22.8925H133.608V22.2522H133.111C132.229 22.2522 132.051 22.1249 132.051 21.495V19.7534H133.687V19.1075H132.051L132.051 17.8413Z" fill="#FFA600"/>
<path d="M135.779 17.7708H134.987V18.7832H135.779V17.7708Z" fill="#FFA600"/>
<path d="M135.779 19.1074H134.987V22.8916H135.779V19.1074Z" fill="#FFA600"/>
<path d="M139.836 19.1075H139.063C138.803 19.0907 138.542 19.1271 138.296 19.2146C138.05 19.302 137.825 19.4387 137.635 19.616C137.444 19.7934 137.292 20.0077 137.189 20.2456C137.085 20.4836 137.031 20.7402 137.031 20.9996C137.031 21.259 137.085 21.5156 137.189 21.7536C137.292 21.9915 137.444 22.2059 137.635 22.3832C137.825 22.5605 138.05 22.6972 138.296 22.7846C138.542 22.8721 138.803 22.9085 139.063 22.8917H139.836C140.096 22.9085 140.357 22.8721 140.603 22.7846C140.849 22.6972 141.074 22.5605 141.264 22.3832C141.455 22.2059 141.607 21.9915 141.71 21.7536C141.814 21.5156 141.868 21.259 141.868 20.9996C141.868 20.7402 141.814 20.4836 141.71 20.2456C141.607 20.0077 141.455 19.7934 141.264 19.616C141.074 19.4387 140.849 19.302 140.603 19.2146C140.357 19.1271 140.096 19.0907 139.836 19.1075ZM139.772 22.229H139.106C138.935 22.2547 138.76 22.2409 138.595 22.1886C138.43 22.1362 138.279 22.0469 138.154 21.9273C138.03 21.8078 137.935 21.6614 137.876 21.4994C137.818 21.3374 137.797 21.1642 137.817 20.9932C137.817 20.1776 138.252 19.7646 139.106 19.7646H139.772C140.644 19.7646 141.087 20.1784 141.087 20.9932C141.087 21.808 140.644 22.229 139.772 22.229Z" fill="#FFA600"/>
<path d="M146.077 19.1074H143.192V22.8916H143.977V19.7701H145.999C146.147 19.7508 146.298 19.7655 146.44 19.8132C146.583 19.8609 146.712 19.9403 146.818 20.0453C146.924 20.1504 147.005 20.2782 147.054 20.419C147.103 20.5599 147.119 20.71 147.1 20.8578V22.8876H147.893V20.8578C147.918 20.6169 147.887 20.3736 147.804 20.146C147.721 19.9184 147.587 19.7125 147.412 19.5437C147.237 19.3748 147.027 19.2475 146.795 19.1711C146.564 19.0947 146.318 19.0713 146.077 19.1026" fill="#FFA600"/>
<path d="M152.38 20.6697H150.653C150.156 20.6697 150.054 20.4848 150.054 20.2079C150.054 19.9309 150.156 19.7541 150.653 19.7541H153.438V19.1082H150.563C149.714 19.1082 149.285 19.4715 149.285 20.1879C149.285 20.7033 149.507 21.3172 150.563 21.3172H152.248C152.709 21.3172 152.804 21.5037 152.804 21.7846C152.804 22.0655 152.706 22.2464 152.206 22.2464H149.387V22.8923H152.306C153.202 22.8923 153.584 22.5722 153.584 21.8198C153.584 21.0459 153.191 20.6697 152.384 20.6697" fill="#FFA600"/>
<path d="M22.0377 0.0109863L7.51703 3.8776C6.35803 4.19873 5.37341 4.96141 4.77709 5.99988C4.18078 7.03835 4.02097 8.2687 4.3324 9.42358C4.64383 10.5785 5.40134 11.5646 6.4403 12.1676C7.47926 12.7706 8.71572 12.9419 9.88103 12.6441L24.4017 8.77831L22.0377 0.0109863Z" fill="#005981"/>
<path d="M25.3289 11.579L10.7744 15.4545L13.1392 24.2258L27.6937 20.3504C28.281 20.2031 28.833 19.9413 29.3176 19.5802C29.8022 19.219 30.2096 18.7657 30.5163 18.2467C30.823 17.7276 31.0228 17.1532 31.104 16.5567C31.1852 15.9602 31.1463 15.3537 30.9895 14.7723C30.8327 14.1909 30.5611 13.6463 30.1906 13.1702C29.82 12.694 29.3579 12.2958 28.8311 11.9988C28.3043 11.7017 27.7233 11.5117 27.1219 11.4398C26.5205 11.3678 25.9108 11.4155 25.3281 11.5798" fill="#FFA600"/>
</svg>
