<svg width="34" height="35" viewBox="0 0 34 35" fill="none" xmlns="http://www.w3.org/2000/svg">
<path d="M16.6667 5.33325C18.3229 5.33325 19.8854 5.64575 21.3542 6.27075C22.8229 6.89575 24.0885 7.75513 25.151 8.84888C26.2448 9.91138 27.1042 11.177 27.7292 12.6458C28.3542 14.1145 28.6667 15.677 28.6667 17.3333C28.6667 18.9895 28.3542 20.552 27.7292 22.0208C27.1042 23.4895 26.2448 24.7708 25.151 25.8645C24.0885 26.927 22.8229 27.7708 21.3542 28.3958C19.8854 29.0208 18.3229 29.3333 16.6667 29.3333C15.0104 29.3333 13.4479 29.0208 11.9792 28.3958C10.5104 27.7708 9.22917 26.927 8.13542 25.8645C7.07292 24.7708 6.22917 23.4895 5.60417 22.0208C4.97917 20.552 4.66667 18.9895 4.66667 17.3333C4.66667 15.677 4.97917 14.1145 5.60417 12.6458C6.22917 11.177 7.07292 9.91138 8.13542 8.84888C9.22917 7.75513 10.5104 6.89575 11.9792 6.27075C13.4479 5.64575 15.0104 5.33325 16.6667 5.33325ZM20.651 16.3489C20.9948 16.5989 21.1667 16.927 21.1667 17.3333C21.1667 17.7395 20.9948 18.0676 20.651 18.3176L15.5417 21.927C15.3229 22.0833 15.1042 22.1614 14.8854 22.1614C14.5417 22.1614 14.2448 22.052 13.9948 21.8333C13.776 21.5833 13.6667 21.2864 13.6667 20.9426V13.7239C13.6667 13.3801 13.776 13.0989 13.9948 12.8801C14.2448 12.6301 14.5417 12.5051 14.8854 12.5051C15.1042 12.5051 15.3229 12.5833 15.5417 12.7395L20.651 16.3489ZM16.6667 26.9426C18.0104 26.9426 19.2604 26.6926 20.4167 26.1926C21.6042 25.6926 22.6198 25.0051 23.4635 24.1301C24.3385 23.2551 25.026 22.2395 25.526 21.0833C26.026 19.927 26.276 18.677 26.276 17.3333C26.276 15.9895 26.026 14.7395 25.526 13.5833C25.026 12.3958 24.3385 11.3801 23.4635 10.5364C22.6198 9.66138 21.6042 8.97388 20.4167 8.47388C19.2604 7.97388 18.0104 7.72388 16.6667 7.72388C15.3229 7.72388 14.0729 7.97388 12.9167 8.47388C11.7604 8.97388 10.7448 9.66138 9.86979 10.5364C8.99479 11.3801 8.30729 12.3958 7.80729 13.5833C7.30729 14.7395 7.05729 15.9895 7.05729 17.3333C7.05729 18.677 7.30729 19.927 7.80729 21.0833C8.30729 22.2395 8.99479 23.2551 9.86979 24.1301C10.7448 25.0051 11.7604 25.6926 12.9167 26.1926C14.0729 26.6926 15.3229 26.9426 16.6667 26.9426Z" fill="#30914C"/>
</svg>
